<svg width="18" height="18" viewBox="0 0 18 18" fill="none" xmlns="http://www.w3.org/2000/svg">
<path d="M3.87435 13.2502C4.58268 12.7085 5.37435 12.2813 6.24935 11.9685C7.12435 11.6563 8.04102 11.5002 8.99935 11.5002C9.95768 11.5002 10.8743 11.6563 11.7493 11.9685C12.6243 12.2813 13.416 12.7085 14.1243 13.2502C14.6105 12.6808 14.9891 12.0349 15.2602 11.3127C15.5307 10.5905 15.666 9.81965 15.666 9.0002C15.666 7.15298 15.0168 5.57993 13.7185 4.28104C12.4196 2.9827 10.8466 2.33354 8.99935 2.33354C7.15213 2.33354 5.57935 2.9827 4.28102 4.28104C2.98213 5.57993 2.33268 7.15298 2.33268 9.0002C2.33268 9.81965 2.46824 10.5905 2.73935 11.3127C3.0099 12.0349 3.38824 12.6808 3.87435 13.2502ZM8.99935 9.83354C8.1799 9.83354 7.48879 9.55243 6.92602 8.9902C6.36379 8.42743 6.08268 7.73631 6.08268 6.91687C6.08268 6.09743 6.36379 5.40631 6.92602 4.84354C7.48879 4.28131 8.1799 4.0002 8.99935 4.0002C9.81879 4.0002 10.5099 4.28131 11.0727 4.84354C11.6349 5.40631 11.916 6.09743 11.916 6.91687C11.916 7.73631 11.6349 8.42743 11.0727 8.9902C10.5099 9.55243 9.81879 9.83354 8.99935 9.83354ZM8.99935 17.3335C7.84657 17.3335 6.76324 17.1146 5.74935 16.6769C4.73546 16.2396 3.85352 15.646 3.10352 14.896C2.35352 14.146 1.7599 13.2641 1.32268 12.2502C0.884905 11.2363 0.666016 10.153 0.666016 9.0002C0.666016 7.84743 0.884905 6.76409 1.32268 5.7502C1.7599 4.73631 2.35352 3.85437 3.10352 3.10437C3.85352 2.35437 4.73546 1.76048 5.74935 1.3227C6.76324 0.885481 7.84657 0.66687 8.99935 0.66687C10.1521 0.66687 11.2355 0.885481 12.2493 1.3227C13.2632 1.76048 14.1452 2.35437 14.8952 3.10437C15.6452 3.85437 16.2388 4.73631 16.676 5.7502C17.1138 6.76409 17.3327 7.84743 17.3327 9.0002C17.3327 10.153 17.1138 11.2363 16.676 12.2502C16.2388 13.2641 15.6452 14.146 14.8952 14.896C14.1452 15.646 13.2632 16.2396 12.2493 16.6769C11.2355 17.1146 10.1521 17.3335 8.99935 17.3335ZM8.99935 15.6669C9.73546 15.6669 10.4299 15.5594 11.0827 15.3444C11.7355 15.1288 12.3327 14.8196 12.8743 14.4169C12.3327 14.0141 11.7355 13.7049 11.0827 13.4894C10.4299 13.2744 9.73546 13.1669 8.99935 13.1669C8.26324 13.1669 7.56879 13.2744 6.91602 13.4894C6.26324 13.7049 5.66602 14.0141 5.12435 14.4169C5.66602 14.8196 6.26324 15.1288 6.91602 15.3444C7.56879 15.5594 8.26324 15.6669 8.99935 15.6669ZM8.99935 8.16687C9.36046 8.16687 9.65907 8.04881 9.89518 7.8127C10.1313 7.57659 10.2493 7.27798 10.2493 6.91687C10.2493 6.55576 10.1313 6.25715 9.89518 6.02104C9.65907 5.78493 9.36046 5.66687 8.99935 5.66687C8.63824 5.66687 8.33963 5.78493 8.10352 6.02104C7.8674 6.25715 7.74935 6.55576 7.74935 6.91687C7.74935 7.27798 7.8674 7.57659 8.10352 7.8127C8.33963 8.04881 8.63824 8.16687 8.99935 8.16687Z" fill="#021016"/>
</svg>
