<svg width="20" height="13" viewBox="0 0 20 13" fill="none" xmlns="http://www.w3.org/2000/svg">
<path d="M9.99967 10.3333C11.0413 10.3333 11.9269 9.96881 12.6563 9.23992C13.3852 8.51047 13.7497 7.62492 13.7497 6.58325C13.7497 5.54158 13.3852 4.65603 12.6563 3.92659C11.9269 3.1977 11.0413 2.83325 9.99967 2.83325C8.95801 2.83325 8.07245 3.1977 7.34301 3.92659C6.61412 4.65603 6.24967 5.54158 6.24967 6.58325C6.24967 7.62492 6.61412 8.51047 7.34301 9.23992C8.07245 9.96881 8.95801 10.3333 9.99967 10.3333ZM9.99967 8.83325C9.37467 8.83325 8.84356 8.61436 8.40634 8.17658C7.96856 7.73936 7.74967 7.20825 7.74967 6.58325C7.74967 5.95825 7.96856 5.42686 8.40634 4.98909C8.84356 4.55186 9.37467 4.33325 9.99967 4.33325C10.6247 4.33325 11.1561 4.55186 11.5938 4.98909C12.0311 5.42686 12.2497 5.95825 12.2497 6.58325C12.2497 7.20825 12.0311 7.73936 11.5938 8.17658C11.1561 8.61436 10.6247 8.83325 9.99967 8.83325ZM9.99967 12.8333C7.9719 12.8333 6.12467 12.2671 4.45801 11.1349C2.79134 10.0033 1.58301 8.48603 0.833008 6.58325C1.58301 4.68047 2.79134 3.16297 4.45801 2.03075C6.12467 0.899085 7.9719 0.333252 9.99967 0.333252C12.0275 0.333252 13.8747 0.899085 15.5413 2.03075C17.208 3.16297 18.4163 4.68047 19.1663 6.58325C18.4163 8.48603 17.208 10.0033 15.5413 11.1349C13.8747 12.2671 12.0275 12.8333 9.99967 12.8333ZM9.99967 11.1666C11.5691 11.1666 13.0102 10.7533 14.323 9.92659C15.6352 9.10047 16.6386 7.98603 17.333 6.58325C16.6386 5.18047 15.6352 4.06575 14.323 3.23909C13.0102 2.41297 11.5691 1.99992 9.99967 1.99992C8.43023 1.99992 6.98912 2.41297 5.67634 3.23909C4.36412 4.06575 3.36079 5.18047 2.66634 6.58325C3.36079 7.98603 4.36412 9.10047 5.67634 9.92659C6.98912 10.7533 8.43023 11.1666 9.99967 11.1666Z" fill="#021016"/>
</svg>
