<svg width="7" height="11" viewBox="0 0 7 11" fill="none" xmlns="http://www.w3.org/2000/svg">
<path d="M5.05556 9.42857H6.61111C6.71425 9.42857 6.81317 9.46996 6.8861 9.54364C6.95903 9.61731 7 9.71724 7 9.82143V10.6071C7 10.7113 6.95903 10.8113 6.8861 10.8849C6.81317 10.9586 6.71425 11 6.61111 11H5.05556C4.95242 11 4.8535 10.9586 4.78057 10.8849C4.70764 10.8113 4.66667 10.7113 4.66667 10.6071V9.82143C4.66667 9.71724 4.70764 9.61731 4.78057 9.54364C4.8535 9.46996 4.95242 9.42857 5.05556 9.42857ZM1.94445 3.14286H6.61111C6.71425 3.14286 6.81317 3.18425 6.8861 3.25792C6.95903 3.3316 7 3.43152 7 3.53571V4.32143C7 4.42562 6.95903 4.52555 6.8861 4.59922C6.81317 4.6729 6.71425 4.71429 6.61111 4.71429H1.94445C1.84131 4.71429 1.74239 4.6729 1.66946 4.59922C1.59653 4.52555 1.55556 4.42562 1.55556 4.32143V3.53571C1.55556 3.43152 1.59653 3.3316 1.66946 3.25792C1.74239 3.18425 1.84131 3.14286 1.94445 3.14286ZM3.5 6.28571H6.61111C6.71425 6.28571 6.81317 6.3271 6.8861 6.40078C6.95903 6.47445 7 6.57438 7 6.67857V7.46429C7 7.56848 6.95903 7.6684 6.8861 7.74208C6.81317 7.81575 6.71425 7.85714 6.61111 7.85714H3.5C3.39686 7.85714 3.29795 7.81575 3.22501 7.74208C3.15208 7.6684 3.11111 7.56848 3.11111 7.46429V6.67857C3.11111 6.57438 3.15208 6.47445 3.22501 6.40078C3.29795 6.3271 3.39686 6.28571 3.5 6.28571ZM0.38889 0H6.61111C6.71425 0 6.81317 0.0413902 6.8861 0.115065C6.95903 0.18874 7 0.288665 7 0.392857V1.17857C7 1.28276 6.95903 1.38269 6.8861 1.45636C6.81317 1.53004 6.71425 1.57143 6.61111 1.57143H0.38889C0.28575 1.57143 0.186835 1.53004 0.113904 1.45636C0.0409732 1.38269 0 1.28276 0 1.17857V0.392857C0 0.288665 0.0409732 0.18874 0.113904 0.115065C0.186835 0.0413902 0.28575 0 0.38889 0Z" fill="#656E72"/>
</svg>
