<svg width="12" height="18" viewBox="0 0 12 18" fill="none" xmlns="http://www.w3.org/2000/svg">
<path d="M6.00033 12.8339C7.37533 11.7228 8.41366 10.6533 9.11533 9.62553C9.81644 8.59775 10.167 7.63247 10.167 6.7297C10.167 5.95192 10.0248 5.28858 9.74033 4.7397C9.45533 4.19136 9.10449 3.74692 8.68783 3.40636C8.27116 3.06636 7.81977 2.81997 7.33366 2.6672C6.84755 2.51442 6.4031 2.43803 6.00033 2.43803C5.59755 2.43803 5.1531 2.51442 4.66699 2.6672C4.18088 2.81997 3.72949 3.06636 3.31283 3.40636C2.89616 3.74692 2.5456 4.19136 2.26116 4.7397C1.97616 5.28858 1.83366 5.95192 1.83366 6.7297C1.83366 7.63247 2.18421 8.59775 2.88533 9.62553C3.58699 10.6533 4.62533 11.7228 6.00033 12.8339ZM6.00033 14.938C4.04199 13.4936 2.58005 12.0908 1.61449 10.7297C0.649492 9.36858 0.166992 8.03525 0.166992 6.7297C0.166992 5.74358 0.344214 4.87886 0.698659 4.13553C1.05255 3.39275 1.50727 2.77136 2.06283 2.27136C2.61838 1.77136 3.24338 1.39636 3.93783 1.14636C4.63227 0.896362 5.31977 0.771362 6.00033 0.771362C6.68088 0.771362 7.36838 0.896362 8.06283 1.14636C8.75727 1.39636 9.38227 1.77136 9.93783 2.27136C10.4934 2.77136 10.9484 3.39275 11.3028 4.13553C11.6567 4.87886 11.8337 5.74358 11.8337 6.7297C11.8337 8.03525 11.3509 9.36858 10.3853 10.7297C9.42033 12.0908 7.95866 13.4936 6.00033 14.938ZM6.00033 8.27136C6.45866 8.27136 6.85116 8.10803 7.17783 7.78136C7.50394 7.45525 7.66699 7.06303 7.66699 6.6047C7.66699 6.14636 7.50394 5.75386 7.17783 5.4272C6.85116 5.10108 6.45866 4.93803 6.00033 4.93803C5.54199 4.93803 5.14977 5.10108 4.82366 5.4272C4.49699 5.75386 4.33366 6.14636 4.33366 6.6047C4.33366 7.06303 4.49699 7.45525 4.82366 7.78136C5.14977 8.10803 5.54199 8.27136 6.00033 8.27136ZM0.166992 17.438V15.7714H11.8337V17.438H0.166992Z" fill="#07073A"/>
</svg>
