<svg width="14" height="19" viewBox="0 0 14 19" fill="none" xmlns="http://www.w3.org/2000/svg">
<path d="M6.99967 0.833252C8.15245 0.833252 9.13523 1.23936 9.94801 2.05159C10.7602 2.86436 11.1663 3.84714 11.1663 4.99992V6.66658H11.9997C12.458 6.66658 12.8505 6.82964 13.1772 7.15575C13.5033 7.48242 13.6663 7.87492 13.6663 8.33325V16.6666C13.6663 17.1249 13.5033 17.5174 13.1772 17.8441C12.8505 18.1702 12.458 18.3333 11.9997 18.3333H1.99967C1.54134 18.3333 1.14912 18.1702 0.823008 17.8441C0.496341 17.5174 0.333008 17.1249 0.333008 16.6666V8.33325C0.333008 7.87492 0.496341 7.48242 0.823008 7.15575C1.14912 6.82964 1.54134 6.66658 1.99967 6.66658H2.83301V4.99992C2.83301 3.84714 3.2394 2.86436 4.05217 2.05159C4.8644 1.23936 5.8469 0.833252 6.99967 0.833252ZM6.99967 2.49992C6.30523 2.49992 5.71495 2.74297 5.22884 3.22909C4.74273 3.7152 4.49967 4.30547 4.49967 4.99992V6.66658H9.49967V4.99992C9.49967 4.30547 9.25662 3.7152 8.77051 3.22909C8.2844 2.74297 7.69412 2.49992 6.99967 2.49992ZM1.99967 16.6666H11.9997V8.33325H1.99967V16.6666ZM6.99967 10.8333C6.54134 10.8333 6.14912 10.9963 5.82301 11.3224C5.49634 11.6491 5.33301 12.0416 5.33301 12.4999C5.33301 12.9583 5.49634 13.3508 5.82301 13.6774C6.14912 14.0035 6.54134 14.1666 6.99967 14.1666C7.45801 14.1666 7.85051 14.0035 8.17718 13.6774C8.50329 13.3508 8.66634 12.9583 8.66634 12.4999C8.66634 12.0416 8.50329 11.6491 8.17718 11.3224C7.85051 10.9963 7.45801 10.8333 6.99967 10.8333Z" fill="#021016"/>
</svg>
