<svg width="29" height="25" viewBox="0 0 29 25" fill="none" xmlns="http://www.w3.org/2000/svg">
<path d="M24.812 14.4912L24.812 14.4913C24.7942 14.5695 24.7247 14.625 24.6444 14.625H10.3307H9.10543L9.35095 15.8254L9.67053 17.3879L9.83407 18.1875H10.6502H23.7566C23.8668 18.1875 23.9486 18.2899 23.9242 18.3975L23.7162 19.3125H21.5246H11.2879H8.91591L5.56385 2.9246L5.40029 2.125H4.58413H1.17187C1.07694 2.125 1 2.04806 1 1.95312V1.17188C1 1.07694 1.07694 1 1.17187 1H6.17817C6.25986 1 6.33021 1.05748 6.34654 1.13736L6.34656 1.13741L6.79411 3.3254L6.95767 4.125H7.77383H26.9526C27.0629 4.125 27.1447 4.22741 27.1202 4.33497L24.812 14.4912ZM22.2244 21.0268L23.6423 19.6377L23.4788 20.3573L24.1932 20.7041C24.7746 20.9863 25.1719 21.5806 25.1719 22.2656C25.1719 23.2235 24.3954 24 23.4375 24C22.4796 24 21.7031 23.2235 21.7031 22.2656C21.7031 21.7805 21.9014 21.3432 22.2244 21.0268ZM8.99392 19.6939L8.93543 19.4079L10.5881 21.0269C10.9111 21.3432 11.1094 21.7805 11.1094 22.2656C11.1094 23.2235 10.3329 24 9.375 24C8.41713 24 7.64062 23.2235 7.64062 22.2656C7.64062 21.6239 7.98914 21.0623 8.51274 20.7612L9.13861 20.4012L8.99392 19.6939Z" stroke="#021016" stroke-width="2"/>
</svg>
