<svg width="102" height="150" viewBox="0 0 102 150" fill="none" xmlns="http://www.w3.org/2000/svg">
<path d="M69.5144 37.9613L75 56.9999L83.5 57L79.1285 35.5276C74.2023 16.1786 54.6216 4.38693 35.4871 9.25297C16.3307 14.1249 4.73991 33.818 9.66605 53.167L17.8103 85.2275L27.4024 82.7996L19.2582 50.7392C15.696 36.7437 24.07 22.4924 37.9262 18.9695C51.8043 15.4407 65.9742 23.9599 69.5144 37.9613Z" fill="#72716F"/>
<path d="M102 145.129C102 147.261 100.275 149.003 98.1651 149.003H3.83493C1.72458 149.003 0 147.261 0 145.129V83.2409C0 81.1092 1.72458 79.3672 3.83493 79.3672H98.1424C100.253 79.3672 101.977 81.1092 101.977 83.2409V145.129H102Z" fill="#F2CB30"/>
</svg>
