<svg width="17" height="15" viewBox="0 0 17 15" fill="none" xmlns="http://www.w3.org/2000/svg">
<path d="M5.10073 8.375L3.97573 2.875H4.6643H15.7997L14.5497 8.375H6.1984H5.10073ZM5.30706 12.8034L5.72634 12.5623L6.07296 12.9019C6.19325 13.0197 6.26562 13.1804 6.26562 13.3594C6.26562 13.7132 5.97881 14 5.625 14C5.27119 14 4.98438 13.7132 4.98438 13.3594C4.98438 13.1235 5.1117 12.9158 5.30706 12.8034ZM3.41604 0.762555L3.41605 0.76261L3.41604 0.762555ZM13.9369 12.586L14.3413 12.7823C14.5576 12.8873 14.7031 13.1074 14.7031 13.3594C14.7031 13.7132 14.4163 14 14.0625 14C13.7087 14 13.4219 13.7132 13.4219 13.3594C13.4219 13.1804 13.4943 13.0197 13.6145 12.9018L13.9369 12.586Z" stroke="#656E72" stroke-width="2"/>
</svg>
