<svg width="17" height="17" viewBox="0 0 17 17" fill="none" xmlns="http://www.w3.org/2000/svg">
<mask id="mask0_121_1089" style="mask-type:alpha" maskUnits="userSpaceOnUse" x="0" y="0" width="17" height="17">
<rect width="17" height="17" rx="5" fill="#D9D9D9"/>
</mask>
<g mask="url(#mask0_121_1089)">
<path d="M3.54167 12.7568C3.54167 13.1442 3.85577 13.4584 4.24324 13.4584C4.42901 13.4584 4.60719 13.3847 4.73871 13.2535L11.6521 6.35731L11.1562 5.84377L10.6427 5.34794L3.74654 12.2613C3.61534 12.3928 3.54167 12.571 3.54167 12.7568ZM4.25287 14.875C3.07768 14.875 2.125 13.9223 2.125 12.7472C2.125 12.1821 2.34973 11.6403 2.74964 11.2411L11.6521 2.35523C11.9236 2.0837 12.2572 1.94794 12.653 1.94794C13.0482 1.94794 13.3816 2.0837 13.6531 2.35523L14.6448 3.3646C14.9163 3.63613 15.0521 3.96669 15.0521 4.35627C15.0521 4.74585 14.9163 5.07641 14.6448 5.34794L5.75889 14.2504C5.35973 14.6503 4.8179 14.875 4.25287 14.875ZM11.6521 6.35731L11.1562 5.84377L10.6427 5.34794L11.6521 6.35731Z" fill="#1C1B1F"/>
</g>
</svg>
