<svg width="7" height="19" viewBox="0 0 7 19" fill="none" xmlns="http://www.w3.org/2000/svg">
<path d="M0.729167 15.7429H1.45833V10.3821H0.729167C0.326448 10.3821 0 10.0498 0 9.63994V7.86719C0 7.45728 0.326448 7.125 0.729167 7.125H4.8125C5.21522 7.125 5.54167 7.45728 5.54167 7.86719V15.7429H6.27083C6.67355 15.7429 7 16.0752 7 16.4851V18.2578C7 18.6677 6.67355 19 6.27083 19H0.729167C0.326448 19 0 18.6677 0 18.2578V16.4851C0 16.0752 0.326448 15.7429 0.729167 15.7429ZM3.5 0C2.05023 0 0.875 1.19622 0.875 2.67188C0.875 4.14753 2.05023 5.34375 3.5 5.34375C4.94977 5.34375 6.125 4.14753 6.125 2.67188C6.125 1.19622 4.94973 0 3.5 0Z" fill="#07073A"/>
</svg>
